<svg width="100%" height="100%" id="svg" viewBox="0 0 1440 590" xmlns="http://www.w3.org/2000/svg" class="transition duration-300 ease-in-out delay-150">
	<defs>
		<linearGradient id="gradient" x1="0%" y1="50%" x2="100%" y2="50%">
			<stop offset="5%" stop-color="#F78DA7">
			</stop>
			<stop offset="95%" stop-color="#8ED1FC">
			</stop>
		</linearGradient>
	</defs>
	<path d="M 0,600 C 0,600 0,120 0,120 C 42.64708513072806,91.63829806949008 85.29417026145612,63.27659613898014 118,75 C 150.70582973854388,86.72340386101986 173.4704040849036,138.5319135135695 204,153 C 234.5295959150964,167.4680864864305 272.8242133989296,144.59574980674188 310,126 C 347.1757866010704,107.40425019325812 383.23274231937813,93.08508725946295 415,102 C 446.76725768062187,110.91491274053705 474.244817323558,143.06390115540623 509,144 C 543.755182676442,144.93609884459377 585.7879883863898,114.65930811891211 623,110 C 660.2120116136102,105.34069188108789 692.6032291308829,126.29886636894537 728,124 C 763.3967708691171,121.70113363105463 801.7990950900789,96.14522640530639 836,82 C 870.2009049099211,67.85477359469361 900.2003905088019,65.12022800982908 927,75 C 953.7996094911981,84.87977199017092 977.3993428747133,107.37386155537729 1010,108 C 1042.6006571252867,108.62613844462271 1084.2022379923449,87.38432576866177 1125,102 C 1165.7977620076551,116.61567423133823 1205.7917051559073,167.0888353699757 1241,164 C 1276.2082948440927,160.9111646300243 1306.6309413840265,104.26033275143553 1339,88 C 1371.3690586159735,71.73966724856447 1405.6845293079868,95.86983362428224 1440,120 C 1440,120 1440,600 1440,600 Z" stroke="none" stroke-width="0" fill="url(#gradient)" fill-opacity="0.265" class="transition-all duration-300 ease-in-out delay-150 path-0">
	</path>
	<defs>
		<linearGradient id="gradient" x1="0%" y1="50%" x2="100%" y2="50%">
			<stop offset="5%" stop-color="#F78DA7">
			</stop>
			<stop offset="95%" stop-color="#8ED1FC">
			</stop>
		</linearGradient>
	</defs>
	<path d="M 0,600 C 0,600 0,240 0,240 C 30.038349318830726,236.3319686600948 60.07669863766145,232.66393732018955 91,223 C 121.92330136233855,213.33606267981045 153.73155476818494,197.67621937933657 190,200 C 226.26844523181506,202.32378062066343 266.99708228959867,222.6311851624642 307,240 C 347.00291771040133,257.3688148375358 386.2801160734203,271.7990399708066 422,273 C 457.7198839265797,274.2009600291934 489.8824534167204,262.17265495430956 525,256 C 560.1175465832796,249.8273450456904 598.1900702596984,249.51034021195505 634,237 C 669.8099297403016,224.48965978804495 703.3572655444865,199.7859841978702 734,205 C 764.6427344555135,210.2140158021298 792.380867562356,245.34572299656432 827,245 C 861.619132437644,244.65427700343568 903.1192642060895,208.8311238158725 934,206 C 964.8807357939105,203.1688761841275 985.1420756132854,233.32978173994576 1019,253 C 1052.8579243867146,272.67021826005424 1100.3124333407688,281.84974922434446 1142,278 C 1183.6875666592312,274.15025077565554 1219.608191023639,257.27122136267644 1249,254 C 1278.391808976361,250.72877863732353 1301.2548025646747,261.0653653249496 1332,261 C 1362.7451974353253,260.9346346750504 1401.3725987176626,250.4673173375252 1440,240 C 1440,240 1440,600 1440,600 Z" stroke="none" stroke-width="0" fill="url(#gradient)" fill-opacity="0.4" class="transition-all duration-300 ease-in-out delay-150 path-1">
	</path>
	<defs>
		<linearGradient id="gradient" x1="0%" y1="50%" x2="100%" y2="50%">
			<stop offset="5%" stop-color="#F78DA7">
			</stop>
			<stop offset="95%" stop-color="#8ED1FC">
			</stop>
		</linearGradient>
	</defs>
	<path d="M 0,600 C 0,600 0,360 0,360 C 46.11337141763907,346.296029463806 92.22674283527815,332.592058927612 121,331 C 149.77325716472185,329.407941072388 161.20640007652648,339.92779375335806 194,343 C 226.79359992347352,346.07220624664194 280.94765685861574,341.6967660589557 321,341 C 361.05234314138426,340.3032339410443 387.0029724890106,343.28514201081913 421,339 C 454.9970275109894,334.71485798918087 497.04045318534213,323.1626658977676 531,334 C 564.9595468146579,344.8373341022324 590.8352147696211,378.0641943981105 625,373 C 659.1647852303789,367.9358056018895 701.6186877361731,324.5805565097905 737,322 C 772.3813122638269,319.4194434902095 800.6900342856861,357.61357956272775 834,373 C 867.3099657143139,388.38642043727225 905.6211751210819,380.96512523929874 938,383 C 970.3788248789181,385.03487476070126 996.8252652299864,396.52591948007745 1031,381 C 1065.1747347700136,365.47408051992255 1107.0777639589728,322.93119684039164 1136,317 C 1164.9222360410272,311.06880315960836 1180.8636789341228,341.7492931583561 1218,358 C 1255.1363210658772,374.2507068416439 1313.4675203045363,376.071630526184 1354,374 C 1394.5324796954637,371.928369473816 1417.2662398477319,365.964184736908 1440,360 C 1440,360 1440,600 1440,600 Z" stroke="none" stroke-width="0" fill="url(#gradient)" fill-opacity="0.53" class="transition-all duration-300 ease-in-out delay-150 path-2">
	</path>
	<defs>
		<linearGradient id="gradient" x1="0%" y1="50%" x2="100%" y2="50%">
			<stop offset="5%" stop-color="#F78DA7">
			</stop>
			<stop offset="95%" stop-color="#8ED1FC">
			</stop>
		</linearGradient>
	</defs>
	<path d="M 0,600 C 0,600 0,480 0,480 C 43.94054545050706,497.93361248167406 87.88109090101412,515.8672249633481 121,507 C 154.11890909898588,498.1327750366519 176.41618184645066,462.46471262828175 204,446 C 231.58381815354934,429.53528737171825 264.4541817131833,432.2739245235249 306,455 C 347.5458182868167,477.7260754764751 397.7670913008162,520.4395892776187 428,518 C 458.2329086991838,515.5604107223813 468.47745308355195,467.9677183660004 500,466 C 531.522546916448,464.0322816339996 584.323096364976,507.68953725837963 628,507 C 671.676903635024,506.31046274162037 706.2301614565442,461.2741326004809 735,442 C 763.7698385434558,422.7258673995191 786.7562578088473,429.2139323396966 817,447 C 847.2437421911527,464.7860676603034 884.7448073080662,493.8701380407326 919,491 C 953.2551926919338,488.1298619592674 984.2645129588884,453.30551549737277 1018,458 C 1051.7354870411116,462.69448450262723 1088.1971408563804,506.90779996977636 1123,504 C 1157.8028591436196,501.09220003022364 1190.9469236155899,451.0632846235217 1230,447 C 1269.0530763844101,442.9367153764783 1314.0151646812599,484.8390615361367 1350,498 C 1385.9848353187401,511.1609384638633 1412.99241765937,495.58046923193166 1440,480 C 1440,480 1440,600 1440,600 Z" stroke="none" stroke-width="0" fill="url(#gradient)" fill-opacity="1" class="transition-all duration-300 ease-in-out delay-150 path-3">
	</path>
</svg>
